<svg width="24" height="24" viewBox="0 0 24 24" fill="none" xmlns="http://www.w3.org/2000/svg">
<g id="Chip">
<g id="Group">
<path id="Vector" d="M18.3618 19.8717H5.64198C4.79983 19.8717 4.11719 19.189 4.11719 18.3469V5.62703C4.11719 4.78487 4.79988 4.10223 5.64198 4.10223H18.3618C19.204 4.10223 19.8866 4.78492 19.8866 5.62703V18.3469C19.8866 19.189 19.204 19.8717 18.3618 19.8717Z" stroke="white" stroke-width="0.703125" stroke-miterlimit="10" stroke-linecap="round" stroke-linejoin="round"/>
<g id="Group_2">
<g id="Group_3">
<path id="Vector_2" d="M7.23828 3.88961V1.55743" stroke="white" stroke-width="0.703125" stroke-miterlimit="10" stroke-linecap="round" stroke-linejoin="round"/>
<path id="Vector_3" d="M9.62012 3.88961V1.55743" stroke="white" stroke-width="0.703125" stroke-miterlimit="10" stroke-linecap="round" stroke-linejoin="round"/>
<path id="Vector_4" d="M12.002 3.88961V1.55743" stroke="white" stroke-width="0.703125" stroke-miterlimit="10" stroke-linecap="round" stroke-linejoin="round"/>
<path id="Vector_5" d="M14.3838 3.88961V1.55743" stroke="white" stroke-width="0.703125" stroke-miterlimit="10" stroke-linecap="round" stroke-linejoin="round"/>
<path id="Vector_6" d="M16.7656 3.88961V1.55743" stroke="white" stroke-width="0.703125" stroke-miterlimit="10" stroke-linecap="round" stroke-linejoin="round"/>
</g>
<g id="Group_4">
<path id="Vector_7" d="M7.23828 22.4165V20.0843" stroke="white" stroke-width="0.703125" stroke-miterlimit="10" stroke-linecap="round" stroke-linejoin="round"/>
<path id="Vector_8" d="M9.62012 22.4165V20.0843" stroke="white" stroke-width="0.703125" stroke-miterlimit="10" stroke-linecap="round" stroke-linejoin="round"/>
<path id="Vector_9" d="M12.002 22.4165V20.0843" stroke="white" stroke-width="0.703125" stroke-miterlimit="10" stroke-linecap="round" stroke-linejoin="round"/>
<path id="Vector_10" d="M14.3838 22.4165V20.0843" stroke="white" stroke-width="0.703125" stroke-miterlimit="10" stroke-linecap="round" stroke-linejoin="round"/>
<path id="Vector_11" d="M16.7656 22.4165V20.0843" stroke="white" stroke-width="0.703125" stroke-miterlimit="10" stroke-linecap="round" stroke-linejoin="round"/>
</g>
<g id="Group_5">
<path id="Vector_12" d="M3.90448 16.8038H1.57227" stroke="white" stroke-width="0.703125" stroke-miterlimit="10" stroke-linecap="round" stroke-linejoin="round"/>
<path id="Vector_13" d="M3.90448 14.3954H1.57227" stroke="white" stroke-width="0.703125" stroke-miterlimit="10" stroke-linecap="round" stroke-linejoin="round"/>
<path id="Vector_14" d="M3.90448 11.9869H1.57227" stroke="white" stroke-width="0.703125" stroke-miterlimit="10" stroke-linecap="round" stroke-linejoin="round"/>
<path id="Vector_15" d="M3.90448 9.57855H1.57227" stroke="white" stroke-width="0.703125" stroke-miterlimit="10" stroke-linecap="round" stroke-linejoin="round"/>
<path id="Vector_16" d="M3.90448 7.1701H1.57227" stroke="white" stroke-width="0.703125" stroke-miterlimit="10" stroke-linecap="round" stroke-linejoin="round"/>
</g>
<g id="Group_6">
<path id="Vector_17" d="M22.4318 16.8038H20.0996" stroke="white" stroke-width="0.703125" stroke-miterlimit="10" stroke-linecap="round" stroke-linejoin="round"/>
<path id="Vector_18" d="M22.4318 14.3954H20.0996" stroke="white" stroke-width="0.703125" stroke-miterlimit="10" stroke-linecap="round" stroke-linejoin="round"/>
<path id="Vector_19" d="M22.4318 11.9869H20.0996" stroke="white" stroke-width="0.703125" stroke-miterlimit="10" stroke-linecap="round" stroke-linejoin="round"/>
<path id="Vector_20" d="M22.4318 9.57855H20.0996" stroke="white" stroke-width="0.703125" stroke-miterlimit="10" stroke-linecap="round" stroke-linejoin="round"/>
<path id="Vector_21" d="M22.4318 7.1701H20.0996" stroke="white" stroke-width="0.703125" stroke-miterlimit="10" stroke-linecap="round" stroke-linejoin="round"/>
</g>
</g>
<g id="Group_7">
<path id="Vector_22" d="M15.8795 13.7913V10.1826C15.8795 9.80978 15.6867 9.46342 15.3699 9.26697L12.5699 7.53095C12.2222 7.31533 11.7823 7.31533 11.4346 7.53095L8.63463 9.26697C8.31775 9.46342 8.125 9.80973 8.125 10.1826V13.7913C8.125 14.1641 8.31775 14.5105 8.63463 14.7069L11.4346 16.4429C11.7823 16.6585 12.2222 16.6585 12.5699 16.4429L15.3699 14.7069C15.6867 14.5105 15.8795 14.1641 15.8795 13.7913Z" stroke="white" stroke-width="0.703125" stroke-miterlimit="10" stroke-linecap="round" stroke-linejoin="round"/>
<path id="Vector_23" d="M12.0021 13.7952C13.0064 13.7952 13.8205 12.981 13.8205 11.9767C13.8205 10.9724 13.0064 10.1583 12.0021 10.1583C10.9977 10.1583 10.1836 10.9724 10.1836 11.9767C10.1836 12.981 10.9977 13.7952 12.0021 13.7952Z" stroke="white" stroke-width="0.703125" stroke-miterlimit="10" stroke-linecap="round" stroke-linejoin="round"/>
</g>
</g>
</g>
</svg>
